<?xml version="1.0" standalone="no"?>
<!DOCTYPE svg PUBLIC "-//W3C//DTD SVG 20010904//EN"
 "http://www.w3.org/TR/2001/REC-SVG-20010904/DTD/svg10.dtd">
<svg version="1.0" xmlns="http://www.w3.org/2000/svg"
 width="753.000000pt" height="331.000000pt" viewBox="0 0 753.000000 331.000000"
 preserveAspectRatio="xMidYMid meet">

<g transform="translate(0.000000,331.000000) scale(0.100000,-0.100000)"
fill="#000000" stroke="none">
<path d="M884 3103 c-9 -53 -58 -155 -117 -243 -43 -64 -95 -128 -268 -333
-13 -16 -55 -63 -94 -104 -38 -41 -77 -85 -85 -97 -8 -13 -31 -42 -51 -67 -70
-85 -122 -192 -163 -341 -29 -103 -16 -227 35 -326 19 -35 34 -48 88 -74 56
-27 78 -32 141 -32 87 0 125 16 166 69 21 28 25 42 21 71 -8 45 -21 61 -59 69
-22 5 -35 2 -47 -10 -15 -16 -14 -17 21 -11 31 6 39 3 48 -14 16 -30 7 -47
-36 -65 -50 -21 -77 -19 -132 9 -69 35 -87 76 -87 190 1 74 6 106 29 171 16
44 32 85 36 90 4 6 38 67 74 137 75 144 137 244 211 338 28 36 62 83 76 105
72 112 187 305 203 340 17 38 18 39 33 20 8 -11 31 -49 51 -85 70 -124 141
-171 266 -173 51 -2 91 5 144 22 75 24 103 22 64 -5 -88 -61 -162 -189 -188
-322 -14 -72 -4 -232 20 -327 8 -33 15 -94 16 -136 0 -41 5 -101 11 -133 8
-47 7 -73 -6 -134 -15 -64 -24 -82 -62 -123 -44 -47 -46 -48 -92 -42 -53 6
-84 23 -107 58 -37 56 23 113 85 82 26 -13 31 -13 31 -2 0 40 -89 47 -125 10
-49 -48 -20 -152 55 -194 58 -32 168 -31 218 2 86 56 125 218 103 422 -17 154
-15 446 4 534 39 187 99 320 191 422 8 8 14 23 14 32 0 19 -25 23 -36 6 -28
-46 -227 -74 -345 -49 -133 28 -250 114 -285 208 -31 83 -59 97 -70 35z"/>
<path d="M5122 3028 c-8 -8 -12 -48 -12 -122 0 -61 -4 -160 -9 -221 -5 -60
-12 -207 -16 -325 -11 -399 -25 -645 -41 -738 -18 -99 -12 -132 26 -152 25
-13 93 6 113 32 17 20 18 32 10 113 -4 49 -6 313 -3 585 3 272 5 572 5 665 l0
170 -30 3 c-17 2 -36 -3 -43 -10z"/>
<path d="M5441 3016 c-9 -10 -13 -102 -15 -308 -8 -692 -17 -982 -33 -1043
-19 -78 -18 -164 1 -184 10 -9 33 -15 61 -15 85 1 97 37 77 224 -12 108 -9
1255 3 1283 17 41 -65 78 -94 43z"/>
<path d="M3895 2503 c-65 -9 -186 -43 -232 -67 -93 -47 -194 -172 -251 -311
-43 -104 -55 -166 -56 -295 -1 -145 12 -183 87 -244 73 -59 135 -70 234 -41
102 30 207 149 223 253 11 67 3 107 -34 163 -22 32 -33 39 -73 45 -65 10 -98
-9 -98 -56 0 -32 3 -35 33 -38 33 -3 40 6 21 25 -8 8 -8 13 1 18 21 13 59 -5
75 -35 14 -26 14 -37 1 -99 -17 -82 -47 -130 -100 -165 -83 -54 -181 -22 -233
77 -46 87 -37 182 30 347 41 99 48 112 83 151 94 107 182 151 306 151 65 0 83
-4 122 -27 87 -51 111 -108 103 -245 -7 -129 -56 -263 -210 -570 -20 -40 -27
-46 -72 -56 -27 -7 -99 -26 -160 -42 -99 -27 -163 -49 -400 -137 -99 -36 -276
-127 -373 -192 -109 -72 -258 -213 -342 -322 -169 -220 -205 -347 -149 -518
26 -79 158 -140 283 -130 221 16 444 170 685 472 143 179 187 244 278 410 33
61 78 139 101 175 22 36 67 109 99 162 l58 97 58 16 c66 19 79 40 17 30 -47
-8 -49 -1 -14 46 48 64 177 348 224 494 31 96 39 248 16 297 -51 107 -202 178
-341 161z m-50 -1120 c-39 -71 -88 -145 -196 -301 -35 -51 -69 -101 -74 -110
-23 -39 -88 -138 -100 -152 -63 -75 -218 -227 -296 -291 -154 -125 -206 -151
-330 -169 -93 -14 -137 -6 -192 32 -71 50 -76 161 -14 283 60 118 279 345 409
425 29 18 82 52 118 75 36 24 106 62 155 86 98 47 496 187 533 188 23 1 23 0
-13 -66z"/>
<path d="M4637 2225 c-144 -60 -214 -167 -267 -410 -27 -120 -26 -174 4 -233
46 -92 139 -116 257 -68 39 16 65 22 68 15 10 -30 58 -59 97 -59 50 0 65 15
72 75 5 49 -8 58 -48 33 -10 -7 -23 -9 -27 -5 -8 9 -7 164 2 292 9 127 26 299
30 313 3 7 2 26 -2 42 -5 29 -7 30 -67 30 -41 -1 -80 -9 -119 -25z m85 -92 c8
-21 8 -67 -1 -173 -6 -80 -11 -175 -11 -211 0 -51 -4 -69 -17 -80 -33 -27 -94
-49 -136 -49 -36 0 -48 6 -73 33 -46 48 -58 87 -51 166 6 71 44 182 84 241 38
58 101 99 151 100 37 0 44 -3 54 -27z"/>
<path d="M1939 2217 c-25 -17 -35 -31 -37 -55 -3 -26 0 -32 15 -32 11 0 24 5
30 11 6 6 17 8 23 4 8 -5 10 -42 6 -134 -19 -379 -24 -477 -27 -486 -2 -5 0
-20 5 -32 6 -18 15 -23 44 -23 64 0 82 9 82 41 0 15 -5 40 -10 55 -13 33 -13
370 0 468 12 100 51 125 82 53 18 -43 16 -437 -2 -530 -17 -83 -6 -102 53 -94
21 3 41 8 45 11 3 3 6 86 7 184 3 423 3 420 25 442 11 11 24 20 30 20 19 0 38
-55 35 -100 -2 -25 -6 -151 -10 -280 -7 -227 -7 -236 12 -253 35 -30 77 -37
109 -18 37 23 51 40 59 73 10 38 -21 51 -45 20 -16 -20 -19 -20 -31 -5 -11 13
-13 74 -11 305 2 242 0 293 -13 318 -27 53 -85 65 -141 31 -30 -18 -31 -18
-55 0 -31 24 -101 25 -140 2 -26 -15 -30 -15 -46 -1 -32 28 -58 30 -94 5z"/>
<path d="M1624 2197 c-39 -27 -57 -50 -89 -113 l-40 -79 -3 -153 -4 -152 38
-81 c46 -98 69 -114 157 -106 52 5 64 10 99 43 105 104 120 392 28 574 -55
110 -100 126 -186 67z m120 -173 c42 -42 50 -77 44 -189 -6 -87 -15 -114 -56
-157 -55 -59 -140 -22 -159 70 -13 66 -8 194 9 227 48 92 103 108 162 49z"/>
<path d="M2664 2168 c-54 -52 -80 -117 -100 -248 -18 -127 -17 -191 5 -275 32
-127 63 -163 143 -172 88 -10 165 72 203 218 30 113 12 335 -34 409 -73 120
-140 141 -217 68z m132 -153 c25 -27 34 -47 39 -90 13 -103 -11 -252 -49 -299
-19 -25 -26 -27 -60 -21 -49 10 -70 43 -85 140 -35 217 55 375 155 270z"/>
<path d="M6365 2172 c-42 -8 -45 -26 -45 -246 -1 -116 -5 -242 -10 -281 -22
-152 -22 -169 -3 -192 27 -34 77 -40 100 -14 16 19 18 44 20 207 2 186 2 187
30 227 36 52 78 77 129 77 44 0 54 10 54 55 0 36 -29 47 -91 34 -35 -8 -64
-23 -90 -46 l-39 -35 0 100 c0 87 -3 103 -17 110 -10 5 -27 7 -38 4z"/>
<path d="M5842 2142 c-45 -23 -100 -79 -122 -122 -53 -105 -51 -298 6 -440 19
-47 78 -84 158 -99 107 -20 236 36 236 101 0 52 -101 81 -108 31 -6 -40 -27
-48 -94 -35 -106 20 -136 57 -139 174 -3 110 1 113 194 123 137 6 147 12 147
73 -1 68 -18 134 -43 160 -44 47 -175 66 -235 34z m114 -53 c52 -13 74 -40 74
-90 0 -48 -23 -67 -90 -74 -64 -8 -125 13 -135 45 -15 47 13 98 65 119 33 13
34 13 86 0z"/>
<path d="M7302 2110 c-26 -11 -24 -6 -46 -120 -9 -47 -33 -138 -54 -203 l-38
-117 -41 29 c-42 31 -68 62 -98 121 -59 115 -77 156 -82 184 -13 71 -42 93
-91 69 -28 -14 -32 -20 -32 -55 0 -85 151 -342 250 -427 52 -44 52 -45 46 -90
-16 -117 -160 -461 -246 -586 -15 -22 -37 -60 -50 -85 -47 -94 -295 -375 -383
-436 -101 -68 -184 -107 -274 -128 -96 -21 -144 -20 -220 5 -71 24 -106 57
-124 118 -10 34 -9 42 7 65 23 32 57 42 90 27 43 -19 20 -81 -26 -66 -11 3
-20 2 -20 -4 0 -16 35 -22 63 -12 34 13 45 53 23 86 -14 21 -24 25 -66 25 -40
0 -56 -5 -81 -28 -26 -23 -31 -36 -36 -87 -4 -55 -2 -64 27 -108 77 -114 284
-165 496 -122 89 19 147 43 217 89 53 36 187 161 187 175 0 4 9 16 21 27 37
33 151 214 214 338 33 67 77 150 96 186 20 36 48 97 63 135 16 39 38 93 51
120 44 97 124 321 144 405 11 47 27 105 36 130 9 25 27 95 40 155 14 61 27
119 30 130 12 41 -45 75 -93 55z"/>
</g>
</svg>
